<?xml version="1.0" encoding="UTF-8"?>
<svg width="12px" height="15px" viewBox="0 0 12 15" version="1.1" xmlns="http://www.w3.org/2000/svg" xmlns:xlink="http://www.w3.org/1999/xlink">
    <!-- Generator: Sketch 52.2 (67145) - http://www.bohemiancoding.com/sketch -->
    <title>Shape</title>
    <desc>Created with Sketch.</desc>
    <g id="Page-1" stroke="none" stroke-width="1" fill="none" fill-rule="evenodd">
        <g id="027" transform="translate(-1267.000000, -22.000000)" fill="#9BADC6" fill-rule="nonzero">
            <g id="Group-67">
                <g id="用户" transform="translate(1267.000000, 22.000000)">
                    <path d="M5.99999268,8 C3.79459566,8 2,6.20549161 2,3.99983667 C2.00001465,1.79416689 3.79459566,0 5.99999268,0 C8.20575586,0 10,1.79416689 10,3.99983667 C10,6.20549161 8.20575586,8 5.99999268,8 Z M5.9996703,1 C4.34539998,1 3,2.34536763 3,4.00000684 C3,5.6546187 4.34572296,7 5.9996703,7 C7.65395407,7 9,5.65463237 9,4.00000684 C9,2.34536763 7.65395407,1 5.9996703,1 Z M7.30484568,14.890104 L4.69516816,14.890104 C2.07199066,14.890104 0,14.890104 0,13.2056646 L0,12.9258713 C0,10.1491803 2.10625984,7.89010402 4.69516816,7.89010402 L7.30484568,7.89010402 C9.89374016,7.89010402 12,10.1491803 12,12.9258713 L12,13.2056646 C11.9996677,14.890104 9.82385873,14.890104 7.30484568,14.890104 Z M4.80781503,8.89010402 C2.70814217,8.89010402 1,10.6000558 1,12.7022802 L1,12.9415375 C1,13.844194 2.44679479,13.890104 4.80781503,13.890104 L7.19218497,13.890104 C9.15013401,13.890104 10.9996641,13.890104 11,12.9415375 L11,12.7022802 C11,10.6000558 9.2918444,8.89010402 7.19218497,8.89010402 L4.80781503,8.89010402 Z" id="Shape"></path>
                </g>
            </g>
        </g>
    </g>
</svg>